<svg width="261" height="198" viewBox="0 0 261 198" fill="none" xmlns="http://www.w3.org/2000/svg">
<path d="M80.4212 27.6535C71.3696 31.7569 67.0188 35.7386 65.3454 41.4529C65.0867 42.3648 65.0107 43.1095 64.9498 45.4195C64.8738 48.1095 64.889 48.2919 65.1932 48.7782C65.3606 49.0517 65.68 49.3709 65.893 49.4621C67.323 50.1156 70.9893 49.0669 73.4994 47.2888C74.6556 46.4682 76.5115 44.5381 77.3482 43.2615C78.1393 42.0608 79.3259 39.6444 79.8887 38.0943C80.6342 35.9818 81.3644 32.9271 81.41 31.6505C81.4404 30.9666 81.6078 29.7052 81.7751 28.8237C82.1402 27.0152 82.1402 27 81.9881 27C81.912 27 81.2122 27.304 80.4212 27.6535Z" fill="#F2D857"/>
<path d="M178.635 27.2584C178.924 28.383 179.38 31.5289 179.258 31.4529C178.878 31.2249 179.654 34.7356 180.612 37.6231C181.708 40.8754 183.168 43.4438 185.085 45.4499C187.412 47.8967 190.303 49.4013 193.026 49.5989C195.216 49.766 195.673 49.2645 195.825 46.5897C196.297 38.4438 191.535 32.6383 180.354 27.6839C179.502 27.304 178.756 27 178.695 27C178.619 27 178.604 27.1216 178.635 27.2584Z" fill="#F2D857"/>
<path d="M56.8719 32.9575C54.4378 37.5016 53.0535 41.1946 52.4906 44.6292C52.1559 46.6353 52.2928 51.3162 52.734 53.0943C53.2969 55.4651 54.5595 57.8512 55.8526 59.0518C56.4155 59.5685 56.6285 59.6749 57.1609 59.6749C58.4388 59.6749 59.9296 58.2159 61.1162 55.7995C61.9377 54.1278 62.6831 51.5138 62.5614 50.7843C62.4854 50.4347 62.5006 50.3739 62.6375 50.5563C62.7592 50.7387 62.7896 50.7083 62.7136 50.4043C62.6831 50.1916 62.6984 49.3709 62.7592 48.5806C62.9874 45.9666 62.5919 43.1703 61.5422 40.07C60.9185 38.1855 59.5493 35.0851 58.4844 33.1094L57.6477 31.5289L56.8719 32.9575Z" fill="#F2D857"/>
<path d="M202.23 33.0942C200.191 36.9089 198.715 40.8602 198.153 43.9605C197.696 46.5137 197.803 50.5107 198.381 52.76C199.096 55.5411 200.83 58.4287 202.336 59.3557C202.64 59.5381 203.097 59.6749 203.477 59.6749C204.527 59.6749 205.576 58.5351 206.839 56.0427C207.539 54.6597 208.269 52.0761 208.147 51.4226C208.086 51.1338 208.117 51.0274 208.239 51.1034C208.345 51.1794 208.36 51.149 208.299 51.0274C208.223 50.9211 208.269 50.1612 208.36 49.3405C208.893 45.1612 207.402 39.5988 204.04 33.3222L203.081 31.5289L202.23 33.0942Z" fill="#F2D857"/>
<path d="M76.2377 47.2736C72.9821 48.3678 71.6738 48.8998 69.8027 49.8724C64.5695 52.6384 61.3748 56.149 60.1882 60.4348C59.8231 61.8025 59.4732 64.9636 59.6558 65.3892C59.8079 65.7539 59.8383 65.8451 59.8688 66.1339C59.8992 66.6202 60.7055 67.2737 61.4053 67.3953C62.1811 67.532 64.6608 67.3497 65.178 67.1217C65.3606 67.0457 65.5127 67.0001 65.5127 67.0305C65.5127 67.0609 64.7368 67.6688 63.8089 68.3831C58.4844 72.4105 55.6244 76.1035 54.4682 80.4196C54.2553 81.2403 54.1792 82.0306 54.1792 83.8391C54.1792 85.1309 54.2401 86.3923 54.3009 86.6507C54.377 86.985 54.377 87.0458 54.2553 86.8786C54.1488 86.7114 54.1336 86.909 54.1944 87.5625C54.5291 90.678 56.1873 91.0124 60.1882 88.7479C61.6791 87.9121 62.9722 86.8634 63.8849 85.7388C64.7064 84.7206 66.0451 82.1977 66.6232 80.5716C67.1557 79.0822 67.8402 75.9667 67.7185 75.5108C67.6577 75.2524 67.6881 75.1764 67.8098 75.2676C67.9467 75.3436 67.9619 75.2676 67.9011 74.9941C67.8402 74.7965 67.9011 73.8695 68.0228 72.9576C68.1445 72.0457 68.2814 70.2068 68.327 68.8694C68.4335 66.1643 68.5096 65.4348 68.6922 65.4956C68.9508 65.5564 70.8371 64.0366 71.9477 62.8664C73.8036 60.9059 75.188 58.611 76.618 55.1156C77.6981 52.4712 78.3066 50.1916 77.8502 50.4803C77.6981 50.5563 78.2457 48.4134 78.6717 47.2128C78.9303 46.4681 78.9303 46.4529 78.7934 46.4529C78.7173 46.4529 77.5764 46.8177 76.2377 47.2736Z" fill="#F2D857"/>
<path d="M181.89 46.5289C181.89 46.6201 182.407 48.4438 182.909 50.1612C182.97 50.3587 182.94 50.4043 182.803 50.3284C182.651 50.2372 182.62 50.3891 182.681 51.0274C182.864 52.7752 185.13 58.0183 186.743 60.45C187.169 61.0883 188.006 62.1369 188.614 62.7904C189.77 64.0366 192.083 65.8907 192.083 65.5868C192.083 65.4804 192.113 65.4348 192.159 65.4804C192.25 65.5564 192.6 72.1521 192.585 73.3527C192.569 73.9303 192.615 74.0974 192.691 73.8847C192.782 73.6871 192.798 73.8391 192.737 74.2646C192.646 75.1005 193.284 78.3376 193.923 80.2525C194.517 82.0306 195.855 84.6142 196.753 85.7388C197.666 86.8634 198.959 87.9121 200.45 88.7479C202.884 90.1157 204.344 90.4957 205.303 89.9941C205.957 89.6598 206.443 88.596 206.337 87.7449C206.291 87.3953 206.307 87.213 206.367 87.3194C206.443 87.4257 206.489 87.1978 206.504 86.7722C206.504 86.3771 206.52 85.1157 206.535 83.9911C206.58 81.3467 206.124 79.3406 204.983 77.1066C203.675 74.523 200.556 71.1339 197.072 68.5047C195.156 67.0609 194.441 66.4682 195.323 67.0305C195.734 67.3041 198.32 67.5473 199.233 67.3953C199.932 67.2737 200.739 66.6202 200.769 66.1339C200.815 65.7083 200.83 65.6324 200.952 65.5108C201.134 65.3284 201.073 63.2919 200.83 61.9393C200.252 58.5807 198.898 56.1186 196.251 53.5958C193.497 50.9667 188.721 48.4742 183.427 46.9089C182.818 46.7265 182.21 46.5441 182.103 46.4986C181.981 46.453 181.89 46.4682 181.89 46.5289Z" fill="#F2D857"/>
<path d="M46.6033 52.456C45.6753 55.5563 45.4015 56.5442 45.0668 58.0791C44.3822 61.2706 44.1692 63.4287 44.2909 65.9819C44.3518 67.2281 44.3974 68.4287 44.3974 68.6415C44.4126 70.298 45.0972 72.988 45.9187 74.6445C46.801 76.3923 48.3984 78.3679 49.6762 79.295C50.6042 79.9637 51.3344 80.0701 52.1407 79.6597C52.6884 79.371 53.449 78.2008 53.9967 76.833C54.8942 74.5837 55.092 73.1704 55.0768 69.2494C55.0768 67.3345 55.0159 66.6658 54.7421 65.6475C53.8293 62.2585 51.9734 58.8694 48.7331 54.7356C46.5729 51.9849 46.7098 52.1217 46.6033 52.456Z" fill="#F2D857"/>
<path d="M213.076 53.3223C210.886 56.149 210.384 56.8177 209.456 58.2311C206.611 62.5776 205.379 66.3314 205.5 70.4044C205.515 71.4226 205.607 72.2281 205.668 72.1825C205.728 72.1369 205.744 72.2889 205.683 72.5017C205.455 73.4287 206.443 76.8178 207.402 78.4135C208.041 79.4622 208.649 79.8877 209.532 79.8877C210.384 79.8877 211.677 78.8999 213 77.2737C214.141 75.83 214.871 74.5078 215.434 72.8512C216.195 70.5868 216.347 69.0518 216.332 64.5381C216.317 61.8633 216.256 61.1339 215.921 59.3861C215.525 57.3496 214.141 52.228 213.989 52.2432C213.943 52.2432 213.533 52.7296 213.076 53.3223Z" fill="#F2D857"/>
<path d="M38.6774 76.8026C38.7535 77.9576 38.8144 79.3558 38.8144 79.9181C38.8144 80.4652 38.8448 80.8756 38.8904 80.7996C38.9361 80.7388 38.9817 81.1339 38.9969 81.6811C39.0273 83.0488 39.6967 86.4075 40.3508 88.3832C41.9634 93.3376 44.7625 96.7419 48.8091 98.6568C51.6235 99.9942 52.9318 99.2799 53.16 96.2556C53.2208 95.5717 53.2665 93.8391 53.2512 92.4258C53.2512 89.9182 53.236 89.7966 52.7492 88.3984C51.3649 84.3558 48.4744 81.0124 43.4238 77.6385C42.1155 76.757 38.7687 74.7205 38.647 74.7205C38.5862 74.7205 38.6166 75.6628 38.6774 76.8026Z" fill="#F2D857"/>
<path d="M220.317 75.7084C212.316 80.526 208.436 84.9029 207.508 90.2221C207.265 91.6659 207.28 95.0701 207.539 95.7692C207.615 95.9516 207.6 96.0124 207.493 95.9516C207.25 95.7996 207.691 97.8817 208.01 98.4288C208.665 99.5534 209.927 99.5838 212.087 98.52C215.525 96.8179 218.036 94.0367 219.648 90.1005C220.637 87.6841 221.671 83.3376 221.504 82.3345C221.458 82.0306 221.474 81.8634 221.55 81.9698C221.626 82.061 221.671 81.8482 221.671 81.4379C221.687 81.0427 221.763 79.7661 221.869 78.5959C221.976 77.4257 222.082 76.0731 222.128 75.5868C222.173 75.1157 222.143 74.7205 222.082 74.7205C222.021 74.7205 221.23 75.1613 220.317 75.7084Z" fill="#F2D857"/>
<path d="M65.8017 84.7054C59.7471 91.0732 57.0392 96.6203 57.3739 102C57.4195 102.912 57.4956 104.219 57.526 104.888C57.6325 106.97 58.4084 109.219 59.2298 109.751C60.2795 110.45 61.4813 110.085 63.4286 108.505C65.2693 106.985 66.5928 105.268 67.4447 103.246C68.0684 101.757 68.5705 99.8574 68.6313 98.6568C68.6617 98.1553 68.7682 96.9242 68.8595 95.9212C69.0421 94.0823 68.9812 91.5139 68.6922 89.3102C68.464 87.5017 67.5968 83.0792 67.4751 83.0792C67.4143 83.0792 66.6689 83.8087 65.8017 84.7054Z" fill="#F2D857"/>
<path d="M193.026 83.7631C192.052 88.0033 191.748 90.7996 191.809 94.7358C191.839 96.4987 191.885 97.9273 191.931 97.8969C191.976 97.8665 192.022 98.2313 192.022 98.7024C192.052 99.7662 192.661 102.107 193.284 103.474C194.441 106.043 196.829 108.626 199.081 109.766C200.45 110.45 201.515 110.085 202.184 108.718C203.005 107.031 203.264 105.146 203.249 100.936C203.249 98.9455 203.188 98.4744 202.838 97.1826C201.773 93.3072 199.187 89.2039 195.14 85.0245L193.193 83.0184L193.026 83.7631Z" fill="#F2D857"/>
<path d="M36 96.2556C36 96.286 36.2738 96.8635 36.6237 97.5322C37.3387 98.9759 37.5669 99.5382 37.3844 99.4319C37.1562 99.2799 37.1105 100.025 37.2931 100.754C37.7647 102.593 41.3245 107.867 43.5607 109.994C45.4471 111.803 47.8355 113.368 49.3872 113.809C49.9349 113.961 50.1326 114.052 49.8436 114.006C49.5545 113.961 48.657 113.824 47.8659 113.702C46.086 113.444 42.4958 113.171 40.6095 113.171H39.1947L40.0009 114.417C41.0963 116.119 41.0963 116.119 40.8985 115.997C40.6247 115.83 40.503 116.62 40.7007 117.274C41.0811 118.55 44.6713 122.988 46.8467 124.903C48.2919 126.164 50.2239 127.456 51.4714 128.019C52.9622 128.672 54.4226 129.128 55.1528 129.143L55.8526 129.158L55.168 129.28C54.7877 129.356 53.2817 129.599 51.8212 129.827C50.3608 130.055 49.1286 130.268 49.083 130.298C49.0525 130.329 49.083 130.405 49.159 130.465C49.5698 130.754 51.2584 132.654 51.0302 132.578C50.7564 132.487 50.6042 132.73 50.6042 133.292C50.6042 133.87 51.4105 134.934 52.7492 136.134C58.0585 140.891 62.3485 142.973 67.034 143.019C67.9924 143.019 69.0268 142.988 69.3159 142.912C69.6049 142.851 68.7834 143.171 67.4904 143.611C63.9002 144.858 62.7744 145.283 62.7744 145.389C62.7744 145.435 63.2156 145.815 63.7632 146.21C64.5999 146.818 65.3149 147.487 64.7825 147.152C64.5847 147.031 64.2957 147.517 64.2957 147.973C64.2957 149.478 71.6891 153.459 76.3137 154.447C78.2153 154.858 81.2883 154.827 83.0682 154.386C84.7872 153.961 87.0387 152.897 87.7689 152.183C88.3622 151.575 88.6208 150.785 88.347 150.298C88.2253 150.04 88.2862 149.934 88.7882 149.554C89.1229 149.31 89.3967 149.067 89.3967 149.007C89.3967 148.946 89.0012 148.399 88.5144 147.791C86.0499 144.706 82.9161 142.806 79.265 142.183C77.9111 141.955 73.6667 142.092 72.0542 142.411C70.0613 142.806 69.8179 142.806 71.1566 142.456C71.9325 142.259 72.7083 141.94 73.0126 141.696C73.5907 141.256 73.9406 140.42 73.7884 139.827C73.7124 139.554 73.8036 139.432 74.1688 139.234C74.4274 139.113 74.6403 138.946 74.6403 138.885C74.6403 138.824 74.3969 138.307 74.1079 137.745C71.6282 132.927 67.6577 130.131 62.2268 129.417C60.5077 129.189 60.2947 129.128 60.8424 128.961C61.6182 128.748 62.1203 128.079 62.1963 127.168C62.2115 126.864 62.3332 126.666 62.5006 126.605C62.8505 126.499 62.8505 126.514 62.318 124.873C60.6751 119.873 57.6781 116.757 52.5819 114.812C51.9582 114.584 51.6843 114.432 51.9734 114.493C52.2624 114.569 53.2208 114.614 54.1032 114.614C55.3354 114.614 55.8222 114.553 56.2634 114.341C56.8567 114.037 57.3739 113.186 57.2522 112.715C57.2066 112.532 57.2826 112.411 57.4652 112.365C57.8151 112.274 57.8151 112.046 57.526 110.481C56.598 105.617 53.738 101.848 49.2503 99.5686C46.8619 98.368 43.2565 97.3346 39.1186 96.6811C37.7799 96.4835 36.5324 96.286 36.3499 96.2404C36.1521 96.21 36 96.21 36 96.2556Z" fill="#F2D857"/>
<path d="M223.877 96.3163C220.348 96.8635 218.796 97.1522 217.108 97.5929C209.745 99.4471 205.531 102.851 203.72 108.414C203.325 109.614 202.853 112.091 202.99 112.289C203.021 112.365 203.203 112.411 203.386 112.426C203.568 112.426 203.629 112.471 203.538 112.517C203.279 112.608 203.294 113.095 203.568 113.611C203.949 114.356 204.709 114.614 206.611 114.614C207.539 114.614 208.497 114.553 208.741 114.493C208.999 114.417 208.543 114.629 207.737 114.964C205.668 115.8 203.933 116.879 202.549 118.171C200.602 119.994 199.248 122.168 198.411 124.842C197.924 126.377 197.924 126.514 198.365 126.696C198.548 126.772 198.624 126.833 198.533 126.833C198.411 126.848 198.396 127.016 198.457 127.35C198.685 128.353 199.08 128.794 199.887 128.976C200.358 129.082 200.358 129.082 199.993 129.158C199.78 129.204 198.898 129.356 198.016 129.493C193.117 130.268 189.603 132.623 187.154 136.772C186.773 137.411 186.363 138.171 186.241 138.459C186.028 138.961 186.028 138.961 186.591 139.28C186.895 139.462 187.062 139.614 186.986 139.614C186.758 139.614 186.728 140.207 186.926 140.8C187.139 141.438 188.082 142.137 188.903 142.274C189.238 142.335 189.496 142.411 189.451 142.441C189.42 142.472 188.614 142.396 187.656 142.259C185.313 141.924 181.647 142.031 180.141 142.456C176.855 143.399 174.192 145.253 171.85 148.231L171.226 149.022L171.834 149.508C172.352 149.918 172.428 150.04 172.291 150.283C172.032 150.785 172.276 151.575 172.869 152.183C173.599 152.897 175.851 153.961 177.57 154.386C179.35 154.827 182.423 154.858 184.324 154.447C188.888 153.475 196.342 149.462 196.342 147.988C196.342 147.548 196.068 147.031 195.871 147.137C195.795 147.198 195.734 147.198 195.734 147.168C195.734 147.122 196.251 146.727 196.875 146.271C197.498 145.83 198.016 145.42 198.016 145.374C198.016 145.329 197.696 145.177 197.301 145.04C191.991 143.216 190.881 142.821 191.398 142.912C192.296 143.095 195.064 143.034 196.114 142.821C199.278 142.168 202.762 140.42 205.789 137.927C209.456 134.903 210.566 133.475 209.821 132.73C209.623 132.547 209.729 132.365 210.597 131.423C211.144 130.815 211.57 130.313 211.54 130.283C211.479 130.253 209.912 129.979 206.078 129.371C205.013 129.189 204.907 129.158 205.485 129.143C206.215 129.128 207.676 128.672 209.151 128.019C211.266 127.076 213.989 124.949 216.012 122.669C217.594 120.891 219.435 118.429 219.8 117.608C220.12 116.894 220.12 116.104 219.8 116.18C219.557 116.225 219.648 116.043 220.683 114.417L221.443 113.246L220.348 113.201C218.964 113.14 214.841 113.414 212.924 113.702C210.201 114.098 210.201 114.098 211.159 113.839C212.574 113.444 214.871 112.015 216.712 110.344C219.648 107.699 223.816 101.149 223.451 99.7662C223.421 99.6142 223.33 99.5382 223.254 99.5838C223.071 99.6902 223.299 99.1279 224.029 97.6689C224.379 96.985 224.638 96.3771 224.607 96.3163C224.577 96.2556 224.258 96.2556 223.877 96.3163ZM209.684 114.326C209.638 114.371 209.501 114.386 209.395 114.341C209.273 114.295 209.319 114.25 209.486 114.25C209.653 114.234 209.745 114.28 209.684 114.326ZM190.059 142.593C190.014 142.639 189.877 142.654 189.77 142.608C189.649 142.563 189.694 142.517 189.862 142.517C190.029 142.502 190.12 142.548 190.059 142.593ZM190.668 142.745C190.622 142.791 190.485 142.806 190.379 142.76C190.257 142.715 190.303 142.669 190.47 142.669C190.637 142.654 190.729 142.699 190.668 142.745Z" fill="#F2D857"/>
<path d="M188.766 103.414C188.066 105.541 187.367 108.262 186.971 110.359C186.697 111.788 186.545 118.247 186.789 118.095C186.849 118.049 186.865 118.216 186.819 118.474C186.697 119.082 187.138 121.195 187.701 122.639C188.842 125.602 192.22 129.28 193.786 129.28C194.654 129.28 195.673 128.216 196.479 126.468C197.285 124.766 197.498 123.064 197.468 118.718C197.453 116.894 197.392 116.195 197.118 115.177C196.114 111.347 193.984 107.35 190.683 103.094C190.09 102.319 189.557 101.651 189.512 101.59C189.451 101.529 189.116 102.35 188.766 103.414Z" fill="#F2D857"/>
<path d="M69.5745 103.718C64.9346 109.918 62.8353 115.222 63.1547 119.933C63.2004 120.769 63.2764 122.061 63.3068 122.821C63.3829 124.538 63.7632 125.921 64.5695 127.274C65.2389 128.399 65.9082 129.067 66.5167 129.219C68.0684 129.614 71.6738 125.906 72.9365 122.639C73.4537 121.316 73.9558 119.067 73.8188 118.718C73.7732 118.581 73.8036 118.125 73.8949 117.684C73.971 117.259 74.047 115.906 74.047 114.69C74.0622 112.335 73.8188 110.374 73.1799 107.775C72.6779 105.693 71.4 101.62 71.2631 101.62C71.187 101.62 70.4264 102.563 69.5745 103.718Z" fill="#F2D857"/>
<path d="M78.1393 115.465C75.2641 121.316 74.2752 125.07 74.3665 129.766C74.3969 131.073 74.4578 132.061 74.5186 131.97C74.5947 131.864 74.5947 132 74.5491 132.259C74.26 133.748 75.7204 137.639 77.3026 139.66C78.4587 141.119 79.4476 141.484 80.4972 140.83C81.5621 140.177 83.4637 137.183 84.1331 135.131C84.4373 134.174 84.8329 132.137 84.7416 131.985C84.696 131.924 84.7416 131.164 84.8329 130.298C85.2284 126.392 84.057 121.894 81.1818 116.286C80.5429 115.025 79.8583 113.778 79.691 113.49L79.3715 112.958L78.1393 115.465Z" fill="#F2D857"/>
<path d="M180.688 114.098C178.802 117.426 177.189 121.18 176.49 123.854C175.896 126.149 175.775 127.411 175.866 130.329C175.972 133.93 176.459 135.754 177.935 138.186C180.004 141.605 181.479 142 183.335 139.66C184.765 137.821 185.937 134.903 186.089 132.775C186.119 132.228 186.211 131.088 186.287 130.237C186.682 125.861 185.435 121.119 182.24 114.781L181.327 112.958L180.688 114.098Z" fill="#F2D857"/>
<path d="M88.4079 123.991C88.3774 124.098 88.1949 125.177 87.9971 126.392C87.7081 128.262 87.6624 129.25 87.6472 132.927C87.6168 137.623 87.7537 139.022 88.4079 141.362C89.4119 144.888 91.5113 147.897 94.3104 149.751C96.1359 150.967 97.1856 150.815 98.0375 149.234C98.5852 148.186 99.1633 146.119 99.2241 144.934C99.2393 144.478 99.3002 143.277 99.361 142.274C99.4979 140.222 99.3458 139.037 98.7373 137.122C97.7333 133.961 95.7252 130.952 92.211 127.319C89.9748 125.009 88.4991 123.718 88.4079 123.991Z" fill="#F2D857"/>
<path d="M169.781 126.043C165.384 130.359 163.163 133.52 161.961 137.168C161.475 138.687 161.125 141.134 161.277 142.183C161.322 142.563 161.399 143.566 161.429 144.402C161.535 146.955 162.433 149.675 163.391 150.283C164.563 151.013 166.373 150.116 168.67 147.7C170.1 146.21 171.043 144.675 171.789 142.669C172.352 141.165 172.808 139.113 172.686 138.687C172.626 138.52 172.656 138.399 172.762 138.399C172.884 138.399 172.915 138.277 172.869 138.079C172.823 137.912 172.884 136.909 173.021 135.845C173.173 134.493 173.219 133.231 173.158 131.636C173.052 128.733 172.428 123.809 172.169 123.809C172.124 123.809 171.043 124.812 169.781 126.043Z" fill="#F2D857"/>
<path d="M101.43 137.973C102.221 139.934 102.48 140.693 102.328 140.602C102.236 140.541 102.175 140.785 102.175 141.241C102.175 142.426 103.925 145.997 106.009 149.052C109.28 153.87 114.057 156.788 118.666 156.788C120.552 156.788 121.191 156.377 121.404 155.086C121.419 154.918 121.526 154.736 121.632 154.675C121.785 154.569 121.8 154.265 121.663 153.186C120.659 144.903 115.563 140.481 103.955 137.806C102.48 137.456 101.232 137.183 101.187 137.183C101.141 137.183 101.263 137.547 101.43 137.973Z" fill="#F2D857"/>
<path d="M157.078 137.715C147.814 139.812 142.778 142.943 140.405 148.095C139.507 150.025 138.732 153.824 139.066 154.614C139.142 154.766 139.218 155.055 139.249 155.253C139.447 156.393 140.146 156.788 141.972 156.788C146.779 156.788 151.48 153.809 154.964 148.535C156.637 146.028 158.341 142.532 158.432 141.468C158.478 140.861 158.463 140.663 158.326 140.739C158.158 140.845 158.28 140.511 159.132 138.414C159.558 137.38 159.603 137.183 159.421 137.198C159.345 137.198 158.295 137.441 157.078 137.715Z" fill="#F2D857"/>
<path d="M94.2952 151.332C91.3591 151.712 87.6777 153.216 84.1483 155.496C82.5053 156.545 79.3715 158.809 79.3563 158.931C79.3563 158.991 79.7822 159.174 80.3147 159.371C81.3187 159.736 81.7143 159.979 81.3035 159.979C81.1514 159.979 81.0145 160.162 80.9536 160.435C80.7407 161.423 81.6382 162.031 84.3917 162.776C93.0934 165.131 99.3306 164.189 103.712 159.827C104.853 158.703 105.248 157.836 104.944 157.183C104.807 156.864 104.853 156.712 105.385 156.013C105.705 155.572 105.979 155.177 105.979 155.131C105.979 155.086 105.598 154.766 105.142 154.432C101.658 151.894 98.0071 150.845 94.2952 151.332Z" fill="#F2D857"/>
<path d="M162.463 151.377C160.105 151.833 157.641 152.912 155.679 154.356L154.659 155.116L155.268 155.937C155.831 156.681 155.876 156.788 155.709 157.152C155.39 157.852 155.77 158.687 156.926 159.827C161.307 164.189 167.545 165.131 176.246 162.776C178.984 162.031 179.897 161.423 179.684 160.45C179.639 160.207 179.471 159.979 179.334 159.949C179.197 159.918 179.608 159.675 180.262 159.417L181.464 158.961L179.547 157.563C174.923 154.174 171.18 152.289 167.681 151.56C165.962 151.21 163.772 151.134 162.463 151.377Z" fill="#F2D857"/>
<path d="M129.163 154.827C128.433 155.04 127.337 156.089 127.048 156.864C126.85 157.38 126.805 157.776 126.881 158.566C126.942 159.128 126.972 159.842 126.972 160.131C126.942 161.575 127.915 163.064 129.178 163.475C131.277 164.174 133.514 162.684 133.62 160.511C133.635 160.086 133.742 159.432 133.833 159.037C133.985 158.475 133.985 158.125 133.833 157.502C133.361 155.389 131.293 154.204 129.163 154.827Z" fill="#F2D857"/>
<path d="M112.9 157.791C108.702 158.49 103.97 161.241 98.6765 166.013L97.855 166.773L98.9807 167.122C99.6044 167.32 100 167.502 99.863 167.532C99.5132 167.624 99.3458 168.262 99.5588 168.718C99.8022 169.25 100.7 169.645 102.419 169.994C111.06 171.742 117.145 170.557 121.435 166.301C122.484 165.253 123.108 164.326 123.169 163.703C123.245 163.064 123.169 162.7 122.986 162.806C122.804 162.928 122.804 162.912 123.58 161.697C123.854 161.256 124.082 160.845 124.082 160.754C124.082 160.526 123.336 160.055 121.845 159.31C118.696 157.73 115.973 157.259 112.9 157.791Z" fill="#F2D857"/>
<path d="M143.235 157.791C142.596 157.897 141.576 158.171 140.953 158.399C139.796 158.809 137.515 159.934 136.891 160.42L136.526 160.693L137.149 161.697C137.484 162.259 137.697 162.715 137.621 162.715C137.347 162.715 137.454 163.931 137.788 164.554C137.956 164.888 138.595 165.663 139.188 166.271C143.432 170.557 149.563 171.757 158.219 169.994C159.938 169.645 160.836 169.25 161.079 168.718C161.292 168.262 161.125 167.624 160.775 167.548C160.638 167.502 161.049 167.32 161.703 167.107L162.889 166.742L161.475 165.511C155.968 160.754 152.012 158.52 147.753 157.776C146.14 157.502 144.801 157.502 143.235 157.791Z" fill="#F2D857"/>
<path d="M132.189 77.672C135.304 77.672 138.141 78.3973 140.701 79.848C143.261 81.2987 145.288 83.368 146.781 86.056C148.274 88.7013 149.021 91.752 149.021 95.208C149.021 98.7493 148.253 101.843 146.717 104.488C145.224 107.133 143.09 109.16 140.317 110.568C137.544 112.019 134.301 112.744 130.589 112.744C126.365 112.744 122.461 111.827 118.877 109.992C115.336 108.2 112.818 105.619 111.325 102.248L119.901 97.448C120.797 99.496 122.12 101.032 123.869 102.056C125.618 103.08 127.645 103.592 129.949 103.592C132.893 103.592 135.176 102.845 136.797 101.352C138.418 99.816 139.229 97.768 139.229 95.208C139.229 92.6907 138.354 90.664 136.605 89.128C134.898 87.592 132.68 86.824 129.949 86.824C127.986 86.824 126.365 87.208 125.085 87.976C123.805 88.7013 122.738 89.8747 121.885 91.496H112.989L116.189 59.176H147.165V68.328H124.573L123.101 81.384C124.253 80.1893 125.64 79.272 127.261 78.632C128.882 77.992 130.525 77.672 132.189 77.672Z" fill="#F2D857"/>
</svg>
