<?xml version="1.0" encoding="UTF-8"?><svg id="_레이어_1" xmlns="http://www.w3.org/2000/svg" xmlns:xlink="http://www.w3.org/1999/xlink" viewBox="0 0 1000 342.84"><defs><style>.cls-1{fill:none;}.cls-2{clip-path:url(#clippath);}.cls-3{fill:#ffe600;}.cls-4{fill:red;}.cls-5{fill:#1b65ff;}.cls-6{fill:#29ba00;}.cls-7{fill:#606060;}.cls-8{clip-path:url(#clippath-1);}</style><clipPath id="clippath"><path class="cls-1" d="m288.33,164.54l-77.07-44.5c-7.97-4.6-17.93,1.15-17.93,10.35v88.99c0,9.2,9.96,14.95,17.93,10.35l77.07-44.5c7.97-4.6,7.97-16.1,0-20.7h0Z"/></clipPath><clipPath id="clippath-1"><path class="cls-1" d="m288.33,164.54l-77.07-44.5c-7.97-4.6-17.93,1.15-17.93,10.35v88.99c0,9.2,9.96,14.95,17.93,10.35l77.07-44.5c7.97-4.6,7.97-16.1,0-20.7h0Z"/></clipPath></defs><path class="cls-7" d="m475.74,168.48c0,35.28-17.9,57.35-42.06,57.35s-42.06-22.07-42.06-57.35,17.9-57,42.06-57,42.06,21.9,42.06,57Zm-62.04,0c0,23.81,8.17,36.49,19.98,36.49s19.98-12.69,19.98-36.49-8.17-36.32-19.98-36.32-19.98,12.69-19.98,36.32Zm106.01-68.3v160.58h-22.94V100.19h22.94Z"/><path class="cls-7" d="m670.38,174.91v18.07h-144.59v-18.07h144.59Zm-14.25-40.32c0,19.46-22.77,31.11-58.04,31.11s-57.87-11.64-57.87-31.11,22.59-31.11,57.87-31.11,58.04,11.82,58.04,31.11Zm-2.95,69.69v54.22h-110.53v-54.22h110.53Zm-89.32-69.69c0,9.04,12.51,13.55,34.23,13.55s34.41-4.52,34.41-13.55-12.51-13.56-34.41-13.56-34.23,4.52-34.23,13.56Zm1.22,87.59v18.42h65.52v-18.42h-65.52Z"/><path class="cls-7" d="m809.23,223.4v18.59h-144.76v-18.59h51.27v-38.23h22.94v38.23h70.56Zm-37.19-71.08c.52-7.3.52-14.08.52-20.33h-91.76v-18.25h114.35v14.08c0,19.29.17,41.71-7.3,76.81l-22.59-2.78c2.78-11.82,4.52-22.42,5.39-31.98l-91.76,4.87-2.95-19.29,96.1-3.13Z"/><path class="cls-7" d="m902.9,181.34c-21.03,4.17-40.84,5.04-76.81,5.04h-13.9v-7.99h-.17v-66.04h75.94v18.25h-53v37.36c29.54-.17,46.92-1.04,65.69-5.04l2.26,18.42Zm33.71,47.79c0,19.81-21.03,31.63-54.57,31.63s-54.74-11.82-54.74-31.63,21.03-31.63,54.74-31.63,54.57,11.64,54.57,31.63Zm-22.77,0c0-9.38-11.12-13.73-31.8-13.73s-31.98,4.34-31.98,13.73,11.12,13.9,31.98,13.9,31.8-4.69,31.8-13.9Zm22.24-33.19h-23.11v-95.75h23.11v95.75Z"/><path class="cls-4" d="m288.33,164.54l-77.07-44.5c-7.97-4.6-17.93,1.15-17.93,10.35v88.99c0,9.2,9.96,14.95,17.93,10.35l77.07-44.5c7.97-4.6,7.97-16.1,0-20.7h0Z"/><g class="cls-2"><circle class="cls-6" cx="265.02" cy="174.89" r="35.71"/></g><g class="cls-8"><circle class="cls-3" cx="216.3" cy="202.14" r="35.71"/></g><path class="cls-5" d="m124.59,275.51h0c0-4.14,3.35-7.49,7.49-7.49h20.97c4.14,0,7.49,3.35,7.49,7.49h0c0,4.14-3.35,7.49-7.49,7.49h-20.97c-4.14,0-7.49-3.35-7.49-7.49Z"/><rect class="cls-6" x="145.06" y="67.34" width="15.81" height="35.96" rx="7.69" ry="7.69"/><rect class="cls-6" x="145.06" y="67.27" width="35.96" height="14.49" rx="7.21" ry="7.21"/><path class="cls-4" d="m333.1,74.61v58.27c-3.18-1.59-6.75-2.51-10.55-2.51-13.05,0-23.62,10.58-23.62,23.62s10.58,23.62,23.62,23.62c3.8,0,7.37-.92,10.55-2.51v60.77c0,3.62,2.94,6.59,6.54,6.59s6.54-2.97,6.54-6.59v-58.43c0-6.11-1.3-9.74-3.07-11.83-2.28-2.7-5.34-2.88-7.47-2.58-1.49.21-2.54.65-2.54.65-2.62,2.87-6.36,4.63-10.55,4.63-7.91,0-14.33-6.42-14.33-14.33s6.42-14.33,14.33-14.33c4.19,0,7.93,1.77,10.55,4.63h0s.31.13.79.27c1.77.54,6.18,1.41,9.22-2.19,1.77-2.1,3.07-5.72,3.07-11.83v-55.94c0-3.62-2.94-6.59-6.54-6.59s-6.54,2.97-6.54,6.59h0Z"/><path class="cls-6" d="m308.5,67.35l-17.97-.05c1.85-3.5,2.92-7.45,2.92-11.63,0-14.38-12.3-26.04-27.48-26.04s-27.48,11.66-27.48,26.04c0,4.18,1.07,8.13,2.92,11.63h-70.7c-4.21,0-7.67,3.24-7.67,7.21s3.45,7.21,7.67,7.21h67.98c7.11,0,11.33-1.43,13.77-3.38,3.15-2.51,3.35-5.88,3-8.24-.25-1.64-.76-2.8-.76-2.8-3.34-2.89-5.39-7.01-5.39-11.63,0-8.72,7.46-15.8,16.67-15.8s16.67,7.07,16.67,15.8c0,4.63-2.05,8.74-5.39,11.63h0s-.15.34-.32.87c-.63,1.94-1.64,6.82,2.55,10.16,2.45,1.95,6.66,3.38,13.77,3.38l15.25.05c4.21,0,7.67-3.24,7.67-7.21s-3.45-7.21-7.67-7.21h-.01Z"/><path class="cls-5" d="m121.69,75.98v71.87c-3.92-1.96-8.33-3.1-13.01-3.1-16.09,0-29.14,13.04-29.14,29.14s13.04,29.14,29.14,29.14c4.68,0,9.09-1.13,13.01-3.09v74.95c0,4.47,3.63,8.13,8.06,8.13s8.06-3.66,8.06-8.13v-72.07c0-7.54-1.59-12-3.78-14.6-1.9-2.26-4.23-3.07-6.36-3.25h.03c-.07-.01-.12-.01-.19-.01-.6-.05-1.18-.05-1.72-.01-1.75.07-3.03.41-3.95.85-.06.03-.14.06-.14.06-.02.02-.04.04-.06.05-1.32.69-1.88,1.52-2.03,1.82-3.01,2.39-6.76,3.84-10.92,3.84-9.76,0-17.67-7.91-17.67-17.67s7.91-17.67,17.67-17.67c5.17,0,9.78,2.17,13.01,5.72,0,0,.38.16.97.34,2.18.67,7.63,1.73,11.37-2.71,2.18-2.59,3.78-7.06,3.78-14.6v-68.99c0-4.47-3.63-8.13-8.06-8.13s-8.06,3.66-8.06,8.13h0Z"/><path class="cls-3" d="m338.73,279.21h0c-3.44,0-6.23-2.79-6.23-6.23v-17.44c0-3.44,2.79-6.23,6.23-6.23h0c3.44,0,6.23,2.79,6.23,6.23v17.44c0,3.44-2.79,6.23-6.23,6.23Z"/><path class="cls-3" d="m172.8,282.46h59.77c-1.63,3.51-2.58,7.46-2.58,11.65,0,14.41,10.85,26.08,24.23,26.08s24.23-11.68,24.23-26.08c0-4.19-.94-8.14-2.57-11.65h62.33c3.72,0,6.76-3.25,6.76-7.22s-3.04-7.22-6.76-7.22h-59.93c-6.27,0-9.98,1.43-12.14,3.39-1.87,1.7-2.55,3.79-2.71,5.7v-.03c-.01.06-.01.11-.01.17-.04.54-.04,1.06-.01,1.54.06,1.57.34,2.71.71,3.54.02.05.05.13.05.13.02.02.03.04.05.05.58,1.18,1.26,1.68,1.51,1.82,1.99,2.69,3.2,6.05,3.2,9.78,0,8.74-6.58,15.82-14.69,15.82s-14.69-7.08-14.69-15.82c0-4.63,1.81-8.75,4.75-11.65,0,0,.13-.34.28-.87.56-1.95,1.44-6.83-2.25-10.18-2.15-1.95-5.87-3.39-12.14-3.39h-57.37c-3.72,0-6.76,3.25-6.76,7.22s3.04,7.22,6.76,7.22v.02Z"/></svg>